/* XPM */
static char *white_cat_laying_128x128_0[] = {
/* columns rows colors chars-per-pixel */
"32 32 14 1 ",
"  c None",
". c gray17",
"X c #676767",
"o c #717171",
"O c #7C7C7C",
"+ c #898989",
"@ c #959595",
"# c gray64",
"$ c gray69",
"% c #BCBCBC",
"& c #CACACA",
"* c LightGray",
"= c gainsboro",
"- c #E7E7E7",
/* pixels */
"                                ",
"                                ",
"                                ",
"                                ",
"                                ",
"                                ",
"                                ",
"                                ",
"                                ",
"                                ",
"                                ",
" O          O                   ",
" OO        OO                   ",
" O@O+#$#@+O@O       oo          ",
" O@#$%%%$$#@@O     oOOo         ",
"O##$%&&&&%$##O     o++o         ",
"O$$.&&&&&.%$$O     +@@+         ",
"O%%.&&O&&.&%%#     @##@         ",
"O&&&&O&O&&&&&*#$    @#@         ",
"+&&&&&&&&&&&&&=-$$  @#@         ",
"@&&&&&&&&&&&&&==-=# @#@         ",
"#&&&&&&&&&&&&&=*==*#@#@         ",
"#&&&&&&&&&&&&&*&**&&&$#         ",
"#&&&&&&&&&&&&&&&&&&&&%#         ",
"#&&&&&&&&&&&&&&&&&&&&%$         ",
" #&&&&&&&&&&&&&&&&&&%$$         ",
" #&&&&&&&&&&&&&%+%%%$#          ",
" #%&&&&&&&&&&&%O$$$$#+          ",
"  #@$#$@$#$$$$@X$#@@O           ",
"  O%%$O%%$OOOOXOOOOOX           ",
"   OOO OOO     XXXXX            ",
"                                "
};
