/* XPM */
static char *test[] = {
/* columns rows colors chars-per-pixel */
"64 64 32 1 ",
"  c black",
". c #222034",
"X c #323C39",
"o c #45283C",
"O c #663931",
"+ c #524B24",
"@ c #4B692F",
"# c #3F3F74",
"$ c #595652",
"% c #696A6A",
"& c #AC3232",
"* c #8F563B",
"= c #8A6F30",
"- c #DF7126",
"; c #D95763",
": c #6ABE30",
"> c #37946E",
", c #FBF236",
"< c #8F974A",
"1 c #D9A066",
"2 c #99E550",
"3 c #306082",
"4 c #76428A",
"5 c #5B6EE1",
"6 c #847E87",
"7 c #D77BBA",
"8 c #639BFF",
"9 c #5FCDE4",
"0 c #9BADB7",
"q c #EEC39A",
"w c #CBDBFC",
"e c white",
/* pixels */
" .oO*-1q,2:>@+X#3589we06%$4&;7<= .oO*-1q,2:>@+X#3589we06%$4&;7<=",
" .oO*-1q,2:>@+X#3589we06%$4&;7<= .oO*-1q,2:>@+X#3589we06%$4&;7<=",
" .oO*-1q,2:>@+X#3589we06%$4&;7<= .oO*-1q,2:>@+X#3589we06%$4&;7<=",
" .oO*-1q,2:>@+X#3589we06%$4&;7<= .oO*-1q,2:>@+X#3589we06%$4&;7<=",
" .oO*-1q,2:>@+X#3589we06%$4&;7<= .oO*-1q,2:>@+X#3589we06%$4&;7<=",
" .oO*-1q,2:>@+X#3589we06%$4&;7<= .oO*-1q,2:>@+X#3589we06%$4&;7<=",
" .oO*-1q,2:>@+X#3589we06%$4&;7<= .oO*-1q,2:>@+X#3589we06%$4&;7<=",
" .oO*-1q,2:>@+X#3589we06%$4&;7<= .oO*-1q,2:>@+X#3589we06%$4&;7<=",
" .oO*-1q,2:>@+X#3589we06%$4&;7<= .oO*-1q,2:>@+X#3589we06%$4&;7<=",
" .oO*-1q,2:>@+X#3589we06%$4&;7<= .oO*-1q,2:>@+X#3589we06%$4&;7<=",
" .oO*-1q,2:>@+X#3589we06%$4&;7<= .oO*-1q,2:>@+X#3589we06%$4&;7<=",
" .oO*-1q,2:>@+X#3589we06%$4&;7<= .oO*-1q,2:>@+X#3589we06%$4&;7<=",
" .oO*-1q,2:>@+X#3589we06%$4&;7<= .oO*-1q,2:>@+X#3589we06%$4&;7<=",
" .oO*-1q,2:>@+X#3589we06%$4&;7<= .oO*-1q,2:>@+X#3589we06%$4&;7<=",
" .oO*-1q,2:>@+X#3589we06%$4&;7<= .oO*-1q,2:>@+X#3589we06%$4&;7<=",
" .oO*-1q,2:>@+X#3589we06%$4&;7<= .oO*-1q,2:>@+X#3589we06%$4&;7<=",
" .oO*-1q,2:>@+X#3589we06%$4&;7<= .oO*-1q,2:>@+X#3589we06%$4&;7<=",
" .oO*-1q,2:>@+X#3589we06%$4&;7<= .oO*-1q,2:>@+X#3589we06%$4&;7<=",
" .oO*-1q,2:>@+X#3589we06%$4&;7<= .oO*-1q,2:>@+X#3589we06%$4&;7<=",
" .oO*-1q,2:>@+X#3589we06%$4&;7<= .oO*-1q,2:>@+X#3589we06%$4&;7<=",
" .oO*-1q,2:>@+X#3589we06%$4&;7<= .oO*-1q,2:>@+X#3589we06%$4&;7<=",
" .oO*-1q,2:>@+X#3589we06%$4&;7<= .oO*-1q,2:>@+X#3589we06%$4&;7<=",
" .oO*-1q,2:>@+X#3589we06%$4&;7<= .oO*-1q,2:>@+X#3589we06%$4&;7<=",
" .oO*-1q,2:>@+X#3589we06%$4&;7<= .oO*-1q,2:>@+X#3589we06%$4&;7<=",
" .oO*-1q,2:>@+X#3589we06%$4&;7<= .oO*-1q,2:>@+X#3589we06%$4&;7<=",
" .oO*-1q,2:>@+X#3589we06%$4&;7<= .oO*-1q,2:>@+X#3589we06%$4&;7<=",
" .oO*-1q,2:>@+X#3589we06%$4&;7<= .oO*-1q,2:>@+X#3589we06%$4&;7<=",
" .oO*-1q,2:>@+X#3589we06%$4&;7<= .oO*-1q,2:>@+X#3589we06%$4&;7<=",
" .oO*-1q,2:>@+X#3589we06%$4&;7<= .oO*-1q,2:>@+X#3589we06%$4&;7<=",
" .oO*-1q,2:>@+X#3589we06%$4&;7<= .oO*-1q,2:>@+X#3589we06%$4&;7<=",
" .oO*-1q,2:>@+X#3589we06%$4&;7<= .oO*-1q,2:>@+X#3589we06%$4&;7<=",
" .oO*-1q,2:>@+X#3589we06%$4&;7<= .oO*-1q,2:>@+X#3589we06%$4&;7<=",
" .oO*-1q,2:>@+X#3589we06%$4&;7<= .oO*-1q,2:>@+X#3589we06%$4&;7<=",
" .oO*-1q,2:>@+X#3589we06%$4&;7<= .oO*-1q,2:>@+X#3589we06%$4&;7<=",
" .oO*-1q,2:>@+X#3589we06%$4&;7<= .oO*-1q,2:>@+X#3589we06%$4&;7<=",
" .oO*-1q,2:>@+X#3589we06%$4&;7<= .oO*-1q,2:>@+X#3589we06%$4&;7<=",
" .oO*-1q,2:>@+X#3589we06%$4&;7<= .oO*-1q,2:>@+X#3589we06%$4&;7<=",
" .oO*-1q,2:>@+X#3589we06%$4&;7<= .oO*-1q,2:>@+X#3589we06%$4&;7<=",
" .oO*-1q,2:>@+X#3589we06%$4&;7<= .oO*-1q,2:>@+X#3589we06%$4&;7<=",
" .oO*-1q,2:>@+X#3589we06%$4&;7<= .oO*-1q,2:>@+X#3589we06%$4&;7<=",
" .oO*-1q,2:>@+X#3589we06%$4&;7<= .oO*-1q,2:>@+X#3589we06%$4&;7<=",
" .oO*-1q,2:>@+X#3589we06%$4&;7<= .oO*-1q,2:>@+X#3589we06%$4&;7<=",
" .oO*-1q,2:>@+X#3589we06%$4&;7<= .oO*-1q,2:>@+X#3589we06%$4&;7<=",
" .oO*-1q,2:>@+X#3589we06%$4&;7<= .oO*-1q,2:>@+X#3589we06%$4&;7<=",
" .oO*-1q,2:>@+X#3589we06%$4&;7<= .oO*-1q,2:>@+X#3589we06%$4&;7<=",
" .oO*-1q,2:>@+X#3589we06%$4&;7<= .oO*-1q,2:>@+X#3589we06%$4&;7<=",
" .oO*-1q,2:>@+X#3589we06%$4&;7<= .oO*-1q,2:>@+X#3589we06%$4&;7<=",
" .oO*-1q,2:>@+X#3589we06%$4&;7<= .oO*-1q,2:>@+X#3589we06%$4&;7<=",
" .oO*-1q,2:>@+X#3589we06%$4&;7<= .oO*-1q,2:>@+X#3589we06%$4&;7<=",
" .oO*-1q,2:>@+X#3589we06%$4&;7<= .oO*-1q,2:>@+X#3589we06%$4&;7<=",
" .oO*-1q,2:>@+X#3589we06%$4&;7<= .oO*-1q,2:>@+X#3589we06%$4&;7<=",
" .oO*-1q,2:>@+X#3589we06%$4&;7<= .oO*-1q,2:>@+X#3589we06%$4&;7<=",
" .oO*-1q,2:>@+X#3589we06%$4&;7<= .oO*-1q,2:>@+X#3589we06%$4&;7<=",
" .oO*-1q,2:>@+X#3589we06%$4&;7<= .oO*-1q,2:>@+X#3589we06%$4&;7<=",
" .oO*-1q,2:>@+X#3589we06%$4&;7<= .oO*-1q,2:>@+X#3589we06%$4&;7<=",
" .oO*-1q,2:>@+X#3589we06%$4&;7<= .oO*-1q,2:>@+X#3589we06%$4&;7<=",
" .oO*-1q,2:>@+X#3589we06%$4&;7<= .oO*-1q,2:>@+X#3589we06%$4&;7<=",
" .oO*-1q,2:>@+X#3589we06%$4&;7<= .oO*-1q,2:>@+X#3589we06%$4&;7<=",
" .oO*-1q,2:>@+X#3589we06%$4&;7<= .oO*-1q,2:>@+X#3589we06%$4&;7<=",
" .oO*-1q,2:>@+X#3589we06%$4&;7<= .oO*-1q,2:>@+X#3589we06%$4&;7<=",
" .oO*-1q,2:>@+X#3589we06%$4&;7<= .oO*-1q,2:>@+X#3589we06%$4&;7<=",
" .oO*-1q,2:>@+X#3589we06%$4&;7<= .oO*-1q,2:>@+X#3589we06%$4&;7<=",
" .oO*-1q,2:>@+X#3589we06%$4&;7<= .oO*-1q,2:>@+X#3589we06%$4&;7<=",
" .oO*-1q,2:>@+X#3589we06%$4&;7<= .oO*-1q,2:>@+X#3589we06%$4&;7<="
};
